<svg width="892" height="156" viewBox="0 0 892 156" fill="none" xmlns="http://www.w3.org/2000/svg">
<path d="M145.443 47.5938L121.869 57.7414C120.868 58.1722 120.554 59.236 121.163 60.1342L181.636 149.355C182.257 150.271 183.601 150.668 184.628 150.238L207.696 140.6C208.706 140.178 209.033 139.114 208.429 138.21L148.463 48.4797C147.841 47.5494 146.476 47.149 145.443 47.5938Z" fill="#3B47B3"/>
<path d="M57.5602 4.81301L34.7202 10.8879C32.0515 11.5977 30.7832 14.225 31.8873 16.7561L88.797 147.217C89.9011 149.748 92.9595 151.225 95.6281 150.515L118.468 144.44C121.137 143.73 122.405 141.103 121.301 138.572L64.3914 8.11075C63.2873 5.57966 60.2289 4.10321 57.5602 4.81301Z" fill="#3B47B3"/>
<path d="M60.7106 3.52544C62.2533 3.66951 63.357 4.76554 63.1726 5.97012L42.9716 137.863C41.6333 146.601 31.4635 152.845 20.2735 151.8C9.08341 150.755 1.0863 142.814 2.42459 134.076L18.4451 29.4777C20.9366 13.2104 39.8732 1.57949 60.7106 3.52544Z" fill="url(#paint0_linear_196_95)"/>
<path d="M145.529 46.12C147.072 46.264 148.176 47.3601 147.991 48.5646L136.312 124.821C133.758 141.492 114.353 153.408 93.0027 151.414C91.353 151.26 90.2 149.806 90.4508 148.168L101.986 72.8572C104.553 56.095 124.063 44.1152 145.529 46.12Z" fill="url(#paint1_linear_196_95)"/>
<path d="M214.261 79.997C225.764 81.0712 233.991 89.2369 232.615 98.2221L228.559 124.705C226.005 141.376 206.6 153.292 185.25 151.298L184.235 151.203C183.135 151.1 182.379 150.132 182.546 149.04L190.926 94.3289C192.302 85.3473 202.759 78.9229 214.266 79.9975L214.261 79.997Z" fill="url(#paint2_linear_196_95)"/>
<path d="M342.058 120.397C340.354 123.805 336.662 127.213 332.686 127.213H317.492C313.516 127.213 309.682 123.805 308.12 120.397L266.94 36.9013C264.952 32.6413 266.514 27.6713 271.768 27.6713H283.98C287.814 27.6713 289.234 29.2333 290.512 31.9313L325.018 99.9493L359.666 31.9313C360.944 29.2333 362.364 27.6713 366.198 27.6713H378.41C383.664 27.6713 385.226 32.6413 383.238 36.9013L342.058 120.397Z" fill="white"/>
<path d="M497.013 27.6713C500.421 27.6713 503.403 30.3693 503.403 33.4933V42.4393C503.403 45.7053 500.421 48.4033 497.013 48.4033H422.037V69.1353H490.197C493.605 69.1353 496.303 71.8333 496.303 74.9573V80.9213C496.303 84.0453 493.605 86.7433 490.197 86.7433H422.037V106.055H497.013C500.421 106.055 503.403 108.753 503.403 111.877V121.391C503.403 124.657 500.421 127.355 497.013 127.355H403.151C399.743 127.355 396.903 124.657 396.903 121.391V33.4933C396.903 30.3693 399.743 27.6713 403.151 27.6713H497.013Z" fill="white"/>
<path d="M589.945 80.9213V121.391C589.945 124.657 587.247 127.355 584.123 127.355H569.781C566.657 127.355 563.959 124.657 563.959 121.391V80.9213L511.845 33.4933C508.721 30.6533 511.987 27.6713 516.389 27.6713H534.281C538.115 27.6713 541.381 29.5173 544.363 32.3573L576.881 60.7573L609.825 32.2153C612.949 29.3753 615.647 27.6713 619.623 27.6713H636.379C640.781 27.6713 644.047 30.6533 640.923 33.4933L589.945 80.9213Z" fill="white"/>
<path d="M760.197 33.4933V43.2913C760.197 45.1373 759.629 46.8413 758.493 47.8353L686.215 106.765H753.665C757.357 106.765 760.197 109.463 760.197 112.587V121.391C760.197 124.657 757.357 127.355 753.665 127.355H660.371C656.679 127.355 653.697 124.657 653.697 121.391V108.895C653.697 106.481 655.117 104.777 657.105 103.357L725.549 48.2613H660.371C656.679 48.2613 653.697 45.5633 653.697 42.2973V33.4933C653.697 30.3693 656.679 27.6713 660.371 27.6713H753.665C757.357 27.6713 760.197 30.3693 760.197 33.4933Z" fill="white"/>
<path d="M890.536 115.285C893.944 125.509 888.548 127.355 885.282 127.355H872.786C868.526 127.355 867.958 124.799 866.68 121.391L862.988 110.031H800.224L796.674 121.391C795.538 124.799 794.828 127.355 790.568 127.355H778.214C774.948 127.355 769.552 125.509 772.96 115.285L800.366 33.4933C801.36 30.3693 804.91 27.6713 808.176 27.6713H855.604C858.87 27.6713 862.278 30.3693 863.272 33.4933L890.536 115.285ZM857.45 93.4173L843.818 50.1073H819.962L805.904 93.4173H857.45Z" fill="white"/>
<defs>
<linearGradient id="paint0_linear_196_95" x1="43.2335" y1="1.89329" x2="29.1565" y2="152.63" gradientUnits="userSpaceOnUse">
<stop stop-color="#75B0EE"/>
<stop offset="1" stop-color="#E12DAA"/>
</linearGradient>
<linearGradient id="paint1_linear_196_95" x1="127.481" y1="44.4345" x2="117.279" y2="153.681" gradientUnits="userSpaceOnUse">
<stop stop-color="#75B0EE"/>
<stop offset="1" stop-color="#E12DAA"/>
</linearGradient>
<linearGradient id="paint2_linear_196_95" x1="214.264" y1="79.9972" x2="207.412" y2="153.368" gradientUnits="userSpaceOnUse">
<stop stop-color="#75B0EE"/>
<stop offset="1" stop-color="#E12DAA"/>
</linearGradient>
</defs>
</svg>
