<svg width="870" height="169" viewBox="0 0 870 169" fill="none" xmlns="http://www.w3.org/2000/svg">
<path d="M122.977 51.7257L103.404 62.5156C102.448 63.0424 102.091 64.2381 102.602 65.2027L153.838 162.011C154.357 162.991 155.573 163.362 156.55 162.839L175.691 152.597C176.658 152.08 177.028 150.88 176.52 149.908L125.716 52.5519C125.197 51.5568 123.96 51.1838 122.977 51.7257Z" fill="#3B47B3"/>
<path d="M48.1057 5.43823L30.0446 11.5902C27.4307 12.4806 26.0334 15.3214 26.9238 17.9354L75.2811 159.903C76.1715 162.517 79.0123 163.914 81.6263 163.024L99.6873 156.872C102.301 155.981 103.698 153.141 102.808 150.527L54.4508 8.55905C53.5604 5.9451 50.7196 4.54787 48.1057 5.43823Z" fill="#3B47B3"/>
<path d="M51.4146 3.82354C52.721 3.97979 53.6558 5.16849 53.4995 6.47493L36.3918 149.52C35.2584 158.997 26.6458 165.769 17.1692 164.636C7.69258 163.503 0.91999 154.89 2.05336 145.413L15.6208 31.9703C17.7308 14.3274 33.7678 1.71304 51.4146 3.82354Z" fill="url(#paint0_linear_243_177)"/>
<path d="M123.246 50.0198C124.552 50.176 125.487 51.3647 125.331 52.6712L115.44 135.375C113.277 153.456 96.8429 166.38 78.7619 164.217V164.217C77.3559 164.049 76.3524 162.773 76.5206 161.367L86.3693 79.0178C88.5435 60.8382 105.066 47.8455 123.246 50.0198Z" fill="url(#paint1_linear_243_177)"/>
<path d="M181.453 86.7611C191.195 87.9261 198.162 96.7822 196.997 106.527L193.562 135.249C191.399 153.33 174.965 166.253 156.884 164.091L156.324 164.024C155.227 163.893 154.445 162.897 154.576 161.801L161.691 102.305C162.856 92.5638 171.712 85.5961 181.457 86.7616L181.453 86.7611Z" fill="url(#paint2_linear_243_177)"/>
<path d="M320.058 126.952C318.354 130.36 314.662 133.768 310.686 133.768H295.492C291.516 133.768 287.682 130.36 286.12 126.952L244.94 43.4556C242.952 39.1956 244.514 34.2256 249.768 34.2256H261.98C265.814 34.2256 267.234 35.7876 268.512 38.4856L303.018 106.504L337.666 38.4856C338.944 35.7876 340.364 34.2256 344.198 34.2256H356.41C361.664 34.2256 363.226 39.1956 361.238 43.4556L320.058 126.952Z" fill="#4E4E50"/>
<path d="M475.013 34.2256C478.421 34.2256 481.403 36.9236 481.403 40.0476V48.9936C481.403 52.2596 478.421 54.9576 475.013 54.9576H400.037V75.6896H468.197C471.605 75.6896 474.303 78.3876 474.303 81.5116V87.4756C474.303 90.5996 471.605 93.2976 468.197 93.2976H400.037V112.61H475.013C478.421 112.61 481.403 115.308 481.403 118.432V127.946C481.403 131.212 478.421 133.91 475.013 133.91H381.151C377.743 133.91 374.903 131.212 374.903 127.946V40.0476C374.903 36.9236 377.743 34.2256 381.151 34.2256H475.013Z" fill="#4E4E50"/>
<path d="M567.945 87.4756V127.946C567.945 131.212 565.247 133.91 562.123 133.91H547.781C544.657 133.91 541.959 131.212 541.959 127.946V87.4756L489.845 40.0476C486.721 37.2076 489.987 34.2256 494.389 34.2256H512.281C516.115 34.2256 519.381 36.0716 522.363 38.9116L554.881 67.3116L587.825 38.7696C590.949 35.9296 593.647 34.2256 597.623 34.2256H614.379C618.781 34.2256 622.047 37.2076 618.923 40.0476L567.945 87.4756Z" fill="#4E4E50"/>
<path d="M738.197 40.0476V49.8456C738.197 51.6916 737.629 53.3956 736.493 54.3896L664.215 113.32H731.665C735.357 113.32 738.197 116.018 738.197 119.142V127.946C738.197 131.212 735.357 133.91 731.665 133.91H638.371C634.679 133.91 631.697 131.212 631.697 127.946V115.45C631.697 113.036 633.117 111.332 635.105 109.912L703.549 54.8156H638.371C634.679 54.8156 631.697 52.1176 631.697 48.8516V40.0476C631.697 36.9236 634.679 34.2256 638.371 34.2256H731.665C735.357 34.2256 738.197 36.9236 738.197 40.0476Z" fill="#4E4E50"/>
<path d="M868.536 121.84C871.944 132.064 866.548 133.91 863.282 133.91H850.786C846.526 133.91 845.958 131.354 844.68 127.946L840.988 116.586H778.224L774.674 127.946C773.538 131.354 772.828 133.91 768.568 133.91H756.214C752.948 133.91 747.552 132.064 750.96 121.84L778.366 40.0476C779.36 36.9236 782.91 34.2256 786.176 34.2256H833.604C836.87 34.2256 840.278 36.9236 841.272 40.0476L868.536 121.84ZM835.45 99.9716L821.818 56.6616H797.962L783.904 99.9716H835.45Z" fill="#4E4E50"/>
<defs>
<linearGradient id="paint0_linear_243_177" x1="36.6135" y1="2.05338" x2="17.1692" y2="164.636" gradientUnits="userSpaceOnUse">
<stop stop-color="#75B0EE"/>
<stop offset="1" stop-color="#E12DAA"/>
</linearGradient>
<linearGradient id="paint1_linear_243_177" x1="107.961" y1="48.1918" x2="93.8688" y2="166.024" gradientUnits="userSpaceOnUse">
<stop stop-color="#75B0EE"/>
<stop offset="1" stop-color="#E12DAA"/>
</linearGradient>
<linearGradient id="paint2_linear_243_177" x1="181.455" y1="86.7614" x2="171.991" y2="165.898" gradientUnits="userSpaceOnUse">
<stop stop-color="#75B0EE"/>
<stop offset="1" stop-color="#E12DAA"/>
</linearGradient>
</defs>
</svg>
